<svg width="2500" height="843" viewBox="0 0 2500 843" xmlns="http://www.w3.org/2000/svg">

<rect width="2500" height="843" fill="#0c324e"/>

<rect x="0" y="0" width="833" height="843" fill="#0c324e"/>
<rect x="834" y="0" width="833" height="843" fill="#0a2a42"/>
<rect x="1667" y="0" width="833" height="843" fill="#e06b29"/>

<line x1="833" y1="60" x2="833" y2="783" stroke="rgba(255,255,255,0.15)" stroke-width="2"/>
<line x1="1667" y1="60" x2="1667" y2="783" stroke="rgba(255,255,255,0.15)" stroke-width="2"/>

<g transform="translate(416, 300)">
<circle cx="0" cy="0" r="90" fill="none" stroke="rgba(255,255,255,0.9)" stroke-width="5"/>
<path d="M-35,-25 L-35,30 Q-35,40 -25,40 L25,40 Q35,40 35,30 L35,-25 Q35,-35 25,-35 L-25,-35 Q-35,-35 -35,-25 Z" fill="none" stroke="white" stroke-width="5" stroke-linecap="round" stroke-linejoin="round"/>
<line x1="-20" y1="-15" x2="20" y2="-15" stroke="white" stroke-width="4" stroke-linecap="round"/>
<line x1="-20" y1="0" x2="20" y2="0" stroke="white" stroke-width="4" stroke-linecap="round"/>
<line x1="-20" y1="15" x2="10" y2="15" stroke="white" stroke-width="4" stroke-linecap="round"/>
<circle cx="25" cy="30" r="18" fill="#e06b29" stroke="white" stroke-width="3"/>
<path d="M19,30 L23,34 L31,26" fill="none" stroke="white" stroke-width="3" stroke-linecap="round" stroke-linejoin="round"/>
</g>
<text x="416" y="470" text-anchor="middle" fill="white" font-family="sans-serif" font-size="52" font-weight="700" letter-spacing="1">หน้าแรก</text>
<text x="416" y="530" text-anchor="middle" fill="rgba(255,255,255,0.6)" font-family="sans-serif" font-size="34" font-weight="400">ค้นหาช่างใกล้บ้าน</text>

<g transform="translate(1250, 300)">
<circle cx="0" cy="0" r="90" fill="none" stroke="rgba(255,255,255,0.9)" stroke-width="5"/>
<path d="M-40,-30 Q-40,-40 -30,-40 L30,-40 Q40,-40 40,-30 L40,15 L25,15 L15,30 L15,15 L-30,15 Q-40,15 -40,5 Z" fill="none" stroke="white" stroke-width="5" stroke-linecap="round" stroke-linejoin="round"/>
<circle cx="-15" cy="-12" r="5" fill="white"/>
<circle cx="5" cy="-12" r="5" fill="white"/>
<circle cx="25" cy="-12" r="5" fill="white"/>
</g>
<text x="1250" y="470" text-anchor="middle" fill="white" font-family="sans-serif" font-size="52" font-weight="700" letter-spacing="1">แชท</text>
<text x="1250" y="530" text-anchor="middle" fill="rgba(255,255,255,0.6)" font-family="sans-serif" font-size="34" font-weight="400">ข้อความของคุณ</text>

<g transform="translate(2083, 300)">
<circle cx="0" cy="0" r="90" fill="none" stroke="rgba(255,255,255,0.9)" stroke-width="5"/>
<circle cx="0" cy="-18" r="18" fill="none" stroke="white" stroke-width="5"/>
<path d="M-32,28 Q-32,5 0,0 Q32,5 32,28" fill="none" stroke="white" stroke-width="5" stroke-linecap="round"/>
<line x1="42" y1="-10" x2="42" y2="14" stroke="white" stroke-width="5" stroke-linecap="round"/>
<line x1="30" y1="2" x2="54" y2="2" stroke="white" stroke-width="5" stroke-linecap="round"/>
</g>
<text x="2083" y="470" text-anchor="middle" fill="white" font-family="sans-serif" font-size="52" font-weight="700" letter-spacing="1">สมัครเป็นช่าง</text>
<text x="2083" y="530" text-anchor="middle" fill="rgba(255,255,255,0.6)" font-family="sans-serif" font-size="34" font-weight="400">ลงทะเบียนฟรี</text>

<text x="1250" y="750" text-anchor="middle" fill="rgba(255,255,255,0.25)" font-family="sans-serif" font-size="28" font-weight="500" letter-spacing="3">RUBJANG NK</text>

</svg>